<svg width="144" height="72" viewBox="0 0 144 72" fill="none" xmlns="http://www.w3.org/2000/svg">
<path d="M8.56808 50.76C8.56808 50.76 13.3201 49.968 16.9921 45.288C20.6641 40.608 23.7601 35.496 24.6961 33.12C25.6321 30.744 25.6321 30.744 25.6321 30.744C25.6321 30.744 25.2001 38.16 27.2161 41.688C29.2321 45.216 30.6001 45.648 30.6001 45.648C30.6001 45.648 27.5761 41.184 27.5761 34.056C27.5761 26.928 27.8641 23.616 27.1441 23.04C27.1441 23.04 25.8481 23.112 25.7041 24.552C25.5601 25.992 23.9761 29.736 23.1121 31.968C22.2481 34.2 16.9921 43.848 14.1121 46.296C11.2321 48.744 9.79208 49.752 8.85608 49.824C7.92008 49.896 8.56808 50.76 8.56808 50.76Z" fill="white"/>
<path d="M31.2479 36.72C31.2479 36.72 30.6719 41.256 32.4719 43.776C34.2719 46.296 35.8559 44.928 36.9359 44.064C38.0159 43.2 38.2319 42.48 38.2319 42.48C38.2319 42.48 40.7519 44.64 40.6799 43.56C40.6079 42.48 39.9599 40.464 38.9519 39.168C37.9439 37.872 36.8639 37.656 36.4319 39.6C35.9999 41.544 34.7759 43.632 33.4799 41.976C32.1839 40.32 34.0559 36.936 33.0479 36C32.0399 35.064 31.2479 36.72 31.2479 36.72Z" fill="white"/>
<path d="M51.0482 36.5039C51.0482 36.5039 50.4722 41.0399 52.2722 43.5599C54.0722 46.0799 55.6562 44.7119 56.7362 43.8479C57.8162 42.9839 58.0322 42.2639 58.0322 42.2639C58.0322 42.2639 60.5522 44.4239 60.4802 43.3439C60.4082 42.2639 59.7602 40.2479 58.7522 38.9519C57.7442 37.6559 56.6642 37.4399 56.2322 39.3839C55.8002 41.3279 54.5762 43.4159 53.2802 41.7599C51.9842 40.1039 53.8562 36.7199 52.8482 35.7839C51.8402 34.8479 51.0482 36.5039 51.0482 36.5039Z" fill="white"/>
<path d="M45.2883 42.048L45.2163 45.216C45.2163 45.216 43.9923 45.648 43.9923 45.216C43.9923 44.784 43.9923 41.904 43.9923 41.904C43.9923 41.904 41.8323 42.336 41.7603 41.76C41.6883 41.184 43.6323 41.04 43.8483 40.824C44.0643 40.608 44.1363 38.88 43.7763 38.88C43.4163 38.88 42.1923 39.24 42.1203 38.592C42.0483 37.944 42.9843 37.296 43.9923 37.008C45.0003 36.72 45.3603 36.792 45.2883 37.872C45.2163 38.952 45.2883 40.824 45.2883 40.824L47.8083 40.68C47.8083 40.68 47.3763 39.168 48.2403 37.728C49.1043 36.288 49.8243 36.072 49.6803 37.728C49.5363 39.384 49.0323 42.984 49.1763 43.92C49.3203 44.856 50.2563 45.936 49.6803 46.224C49.1043 46.512 48.1683 46.152 47.8803 44.568C47.5923 42.984 47.8083 42.048 47.8083 42.048H45.2883Z" fill="white"/>
<path d="M68.616 40.32C68.616 40.32 68.04 40.536 68.112 41.904C68.184 43.272 68.472 44.64 68.112 44.928C67.752 45.216 66.384 45.72 66.24 44.28C66.096 42.84 66.24 41.256 66.24 41.256L65.808 41.328C65.808 41.328 64.08 44.064 63.288 44.928C62.496 45.792 61.416 46.08 61.2 45.144C60.984 44.208 61.488 43.704 62.568 42.84C63.648 41.976 63.72 41.472 63.648 41.472C63.576 41.472 62.352 41.688 61.92 40.32C61.488 38.952 62.208 37.944 62.784 37.368C63.36 36.792 64.656 36.504 65.808 36.504C66.96 36.504 67.896 37.584 67.392 37.872C66.888 38.16 64.44 37.944 64.44 38.232C64.44 38.52 63.936 40.248 64.872 40.176C65.808 40.104 66.6 39.384 67.32 38.736C68.04 38.088 68.688 37.944 68.76 38.88C68.832 39.816 68.904 40.176 68.832 40.248C68.76 40.32 68.616 40.32 68.616 40.32Z" fill="white"/>
<path d="M78.192 52.128C78.192 52.128 80.496 41.256 80.568 39.096C80.64 36.936 80.568 36.936 80.568 36.936C80.568 36.936 78.984 35.64 79.776 34.92C80.568 34.2 81 34.2 81 34.2C81 34.2 80.64 24.768 81 24.408C81.36 24.048 83.52 23.904 83.52 24.624C83.52 25.344 83.52 25.992 85.536 26.208C87.552 26.424 90.072 27.432 88.56 30.384C87.048 33.336 86.184 32.472 86.256 31.824C86.328 31.176 88.56 29.448 86.976 28.584C85.392 27.72 84.096 28.656 83.808 30.528C83.52 32.4 83.736 33.408 84.816 33.048C85.896 32.688 86.544 30.96 86.976 31.104C87.408 31.248 87.192 33.192 88.128 33.408C89.064 33.624 97.776 34.416 97.992 37.656C98.208 40.896 92.808 44.064 87.264 45.216C81.72 46.368 80.712 46.368 80.712 46.368L80.64 45.144C80.64 45.144 85.824 45.144 90.432 43.2C95.04 41.256 97.2 39.96 95.544 37.368C93.888 34.776 88.488 34.992 86.76 35.28C85.032 35.568 83.016 36 82.44 38.664C81.864 41.328 81.648 43.776 80.568 47.952C79.488 52.128 78.984 53.424 78.552 53.208C78.12 52.992 78.192 52.128 78.192 52.128Z" fill="white"/>
<path d="M79.9921 45.288C79.9921 45.288 75.3121 46.008 73.1521 46.8C70.9921 47.592 65.7361 48.6 65.3041 51.264C64.8721 53.928 69.6961 54.432 71.2801 54.216C72.8641 54 72.8641 53.496 70.9921 53.496C69.1201 53.496 67.5361 52.848 67.6801 50.76C67.8241 48.672 73.1521 47.592 76.0321 47.232C78.9121 46.872 80.3521 46.296 80.3521 46.296L79.9921 45.288Z" fill="white"/>
<path d="M100.728 38.952C100.728 38.952 100.584 36.864 100.728 36.144C100.872 35.424 100.656 34.848 99.8639 35.208C99.0719 35.568 98.8559 36.432 98.7839 38.808C98.7119 41.184 98.7119 43.128 99.4319 44.28C100.152 45.432 101.448 45.216 101.088 44.064C100.728 42.912 99.9359 42.192 100.08 41.616C100.224 41.04 103.248 43.416 103.896 44.064C104.544 44.712 105.912 45.432 106.56 44.712C107.208 43.992 106.776 43.344 105.264 42.768C103.752 42.192 101.736 40.464 101.736 40.464C101.736 40.464 104.256 39.024 105.336 38.016C106.416 37.008 106.776 35.856 105.264 36.288C103.752 36.72 102.24 38.376 101.592 38.88C100.944 39.384 100.728 38.952 100.728 38.952Z" fill="white"/>
<path d="M116.136 37.656C116.136 37.656 115.848 49.968 115.776 52.848C115.704 55.728 115.632 60.264 114.12 62.496C112.608 64.728 109.944 63.648 108.792 61.848C107.64 60.048 108.288 57.456 108.504 57.312C108.72 57.168 109.296 57.816 109.512 59.616C109.728 61.416 112.608 63 113.76 60.552C114.912 58.104 115.272 49.608 114.84 47.448C114.408 45.288 113.472 43.344 112.68 43.704C111.888 44.064 110.304 44.856 109.512 42.984C108.72 41.112 109.224 40.248 108.144 40.32C107.064 40.392 107.208 39.24 108.144 38.664C109.08 38.088 110.304 37.944 110.448 39.096C110.592 40.248 111.672 42.84 112.68 41.688C113.688 40.536 113.544 37.944 113.976 36.792C114.408 35.64 115.416 36.144 115.776 36.576C116.136 37.008 116.136 37.656 116.136 37.656Z" fill="white"/>
<path d="M124.056 38.808C124.056 38.808 120.528 38.736 119.808 40.68C119.088 42.624 119.736 43.992 121.32 43.632C122.904 43.272 123.12 41.832 123.84 41.904C124.56 41.976 124.776 42.984 124.632 43.704C124.488 44.424 122.832 45.504 120.744 45.216C118.656 44.928 116.784 43.2 118.152 40.608C119.52 38.016 120.96 37.944 122.184 37.8C123.408 37.656 124.56 37.728 124.56 38.232C124.56 38.736 124.056 38.808 124.056 38.808Z" fill="white"/>
<path d="M130.032 39.024C130.032 39.024 127.944 40.68 128.016 42.192C128.088 43.704 129.456 43.488 130.464 42.624C131.472 41.76 131.256 39.744 130.464 39.096C129.672 38.448 129.456 36.648 130.392 36.792C131.328 36.936 132.552 39.456 133.056 40.896C133.56 42.336 134.928 43.632 135.432 44.064C135.936 44.496 135.432 45.576 134.568 45.432C133.704 45.288 132.696 44.136 132.336 43.56C131.976 42.984 131.184 43.416 130.68 43.992C130.176 44.568 129.744 45.144 128.448 45.288C127.152 45.432 126.216 44.496 126.36 42.912C126.504 41.328 126.792 40.464 128.088 39.456C129.384 38.448 130.032 39.024 130.032 39.024Z" fill="white"/>
<path d="M106.272 64.08C107.177 63.8705 107.728 63.0093 107.568 62.208C107.432 61.5254 106.804 61.0027 106.128 60.984C105.185 60.9581 104.348 61.9207 104.544 62.856C104.695 63.5753 105.425 64.1282 106.272 64.08Z" fill="white"/>
<path d="M37.7279 64.296C38.5329 64.0944 39.075 63.3557 39.0239 62.568C38.9749 61.8141 38.3925 61.1489 37.6559 61.056C36.7415 60.9408 35.8329 61.7414 35.8559 62.712C35.8782 63.6365 36.7365 64.4033 37.7279 64.296Z" fill="white"/>
<path d="M35.8201 26.172C35.8201 26.172 30.4921 22.788 31.1401 17.676C31.7881 12.564 42.1561 12.348 46.8361 14.652C51.5161 16.956 54.6841 21.708 63.6121 23.508C72.5401 25.308 79.4521 21.276 81.6121 17.604C83.7721 13.932 80.8921 11.844 77.2201 12.78C73.5481 13.716 72.6121 16.02 72.6121 17.244C72.6121 18.468 77.6521 19.908 84.4921 13.284C91.3321 6.65999 99.6841 3.92399 108.108 4.49999C116.532 5.07599 119.844 7.59599 120.276 11.052C120.708 14.508 116.1 17.604 108.108 16.812C100.116 16.02 93.0601 16.236 92.7001 19.908C92.3401 23.58 100.548 26.604 108.9 27.036C117.252 27.468 123.804 26.316 124.668 25.452C125.532 24.588 117.252 23.364 112.284 24.66C107.316 25.956 106.02 26.532 105.732 28.188C105.444 29.844 111.348 32.868 116.172 30.78C120.996 28.692 121.5 28.908 115.092 28.836C108.684 28.764 107.244 29.052 102.492 28.044C97.7401 27.036 95.0041 24.876 98.0281 21.78C101.052 18.684 113.652 18.18 121.644 19.404C129.636 20.628 131.868 21.708 129.564 24.084C127.26 26.46 125.388 27.324 119.772 27.756C114.156 28.188 112.716 28.116 112.716 28.116" stroke="white" stroke-width="0.66" stroke-miterlimit="10"/>
<path d="M49.9321 9.396C49.9321 9.396 53.7481 16.164 59.1481 19.044C64.5481 21.924 70.1641 21.132 70.1641 21.132" stroke="white" stroke-width="0.66" stroke-miterlimit="10"/>
<path d="M101.556 10.908C101.556 10.908 116.964 5.868 121.716 9.972C126.468 14.076 117.108 17.388 117.108 17.388" stroke="white" stroke-width="0.66" stroke-miterlimit="10"/>
<path d="M44.5498 59.796C44.5498 61.6917 44.5498 63.5882 44.5498 65.484C44.5498 65.8317 45.0898 65.8317 45.0898 65.484C45.0898 63.5882 45.0898 61.6917 45.0898 59.796C45.0898 59.4482 44.5498 59.4482 44.5498 59.796Z" fill="white"/>
<path d="M44.8199 62.91C45.3289 62.8992 45.838 62.8949 46.3463 62.8769C46.702 62.8639 46.8453 62.5896 47.067 62.3362C47.7496 61.5535 48.4321 60.7701 49.1147 59.9875C49.3422 59.7269 48.9621 59.3431 48.7331 59.6059C47.9173 60.5419 47.1009 61.4779 46.2851 62.4139C46.3485 62.3873 46.4125 62.3614 46.4759 62.3347C45.9237 62.347 45.3721 62.3585 44.8199 62.3707C44.4729 62.3772 44.4714 62.9179 44.8199 62.91Z" fill="white"/>
<path d="M46.2852 62.9387C47.0772 63.8265 47.8692 64.715 48.6612 65.6027C48.893 65.8627 49.2739 65.4796 49.0428 65.2211C48.2508 64.3334 47.4588 63.4449 46.6668 62.5571C46.4349 62.2972 46.054 62.6803 46.2852 62.9387Z" fill="white"/>
<path d="M55.0692 64.2852C54.7812 64.5494 54.4932 64.8129 54.2052 65.0772C54.2685 65.0505 54.3326 65.0246 54.396 64.998C53.676 64.998 52.956 64.998 52.236 64.998C52.2993 65.0246 52.3634 65.0505 52.4268 65.0772C52.0905 64.8129 51.755 64.5494 51.4188 64.2852C51.4454 64.3485 51.4713 64.4126 51.498 64.476C51.498 63.18 51.498 61.884 51.498 60.588C51.4533 60.6657 51.4087 60.7435 51.364 60.8212C51.8248 60.4922 52.2864 60.1624 52.7472 59.8334C52.763 59.8219 52.8451 59.7794 52.8501 59.76C52.866 59.6973 52.745 59.765 52.7601 59.7787C52.8048 59.8197 53.0834 59.7787 53.1432 59.7787C53.4168 59.7787 53.6896 59.7787 53.9632 59.7787C53.8999 59.752 53.8358 59.7261 53.7724 59.6995C54.2044 60.0357 54.6364 60.3712 55.0684 60.7075C55.0418 60.6441 55.0159 60.58 54.9892 60.5167C54.9892 61.2604 54.9892 62.0049 54.9892 62.7487C55.0792 62.6587 55.1692 62.5687 55.2592 62.4787C53.9632 62.4787 52.6672 62.4787 51.3712 62.4787C51.0235 62.4787 51.0235 63.0187 51.3712 63.0187C52.6672 63.0187 53.9632 63.0187 55.2592 63.0187C55.4054 63.0187 55.5292 62.8948 55.5292 62.7487C55.5292 62.1439 55.5292 61.5391 55.5292 60.9343C55.5292 60.7428 55.5775 60.4807 55.4472 60.323C55.2859 60.1286 55.0008 59.976 54.802 59.8212C54.5911 59.657 54.383 59.4604 54.1555 59.3186C53.9236 59.1739 53.5816 59.238 53.316 59.238C53.0964 59.238 52.7947 59.1832 52.5916 59.2833C52.3396 59.4064 52.1042 59.6318 51.876 59.7945C51.6247 59.9738 51.3547 60.1408 51.1164 60.3374C50.9637 60.4627 50.9572 60.5736 50.9572 60.7521C50.9572 61.4174 50.9572 62.0834 50.9572 62.7487C50.9572 63.3052 50.8996 63.8956 50.9572 64.4493C50.9817 64.684 51.1747 64.7769 51.3489 64.913C51.5764 65.0916 51.7996 65.3054 52.0444 65.4595C52.2684 65.6006 52.6032 65.5387 52.8602 65.5387C53.2807 65.5387 53.7019 65.5387 54.1224 65.5387C54.3672 65.5387 54.5054 65.5329 54.6933 65.3608C54.9453 65.1297 55.1973 64.8986 55.45 64.6675C55.7078 64.4313 55.3248 64.0504 55.0692 64.2852Z" fill="white"/>
<path d="M74.6531 64.3572C74.3651 64.6214 74.0771 64.8849 73.7891 65.1492C73.8525 65.1225 73.9166 65.0966 73.9799 65.07C73.2599 65.07 72.5399 65.07 71.8199 65.07C71.8833 65.0966 71.9474 65.1225 72.0107 65.1492C71.6745 64.8849 71.339 64.6214 71.0027 64.3572C71.0294 64.4205 71.0553 64.4846 71.0819 64.548C71.0819 63.252 71.0819 61.956 71.0819 60.66C71.0373 60.7377 70.9927 60.8155 70.948 60.8933C71.4088 60.5642 71.8703 60.2345 72.3311 59.9054C72.347 59.8939 72.4291 59.8514 72.4341 59.832C72.4499 59.7693 72.329 59.837 72.3441 59.8507C72.3887 59.8917 72.6674 59.8507 72.7271 59.8507C73.0007 59.8507 73.2736 59.8507 73.5472 59.8507C73.4839 59.8241 73.4198 59.7981 73.3564 59.7715C73.7884 60.1077 74.2204 60.4433 74.6524 60.7795C74.6258 60.7161 74.5999 60.6521 74.5732 60.5887C74.5732 61.3325 74.5732 62.0769 74.5732 62.8207C74.6632 62.7307 74.7532 62.6407 74.8432 62.5507C73.5472 62.5507 72.2512 62.5507 70.9552 62.5507C70.6075 62.5507 70.6075 63.0907 70.9552 63.0907C72.2512 63.0907 73.5472 63.0907 74.8432 63.0907C74.9894 63.0907 75.1132 62.9669 75.1132 62.8207C75.1132 62.2159 75.1132 61.6111 75.1132 61.0063C75.1132 60.8148 75.1615 60.5527 75.0311 60.395C74.8699 60.2006 74.5847 60.048 74.386 59.8932C74.1751 59.729 73.967 59.5325 73.7395 59.3906C73.5076 59.2459 73.1656 59.31 72.8999 59.31C72.6803 59.31 72.3787 59.2553 72.1756 59.3553C71.9236 59.4785 71.6882 59.7038 71.4599 59.8665C71.2087 60.0458 70.9387 60.2129 70.7003 60.4094C70.5477 60.5347 70.5412 60.6456 70.5412 60.8241C70.5412 61.4894 70.5412 62.1554 70.5412 62.8207C70.5412 63.3773 70.4836 63.9677 70.5412 64.5213C70.5657 64.7561 70.7587 64.8489 70.9329 64.985C71.1604 65.1636 71.3836 65.3774 71.6284 65.5315C71.8523 65.6726 72.1871 65.6107 72.4442 65.6107C72.8647 65.6107 73.2859 65.6107 73.7063 65.6107C73.9519 65.6107 74.0894 65.6049 74.2773 65.4329C74.5293 65.2017 74.7813 64.9706 75.034 64.7395C75.2918 64.5033 74.9087 64.1225 74.6531 64.3572Z" fill="white"/>
<path d="M57.2939 59.508C57.2939 61.4282 57.2939 63.3477 57.2939 65.268C57.2939 65.5596 57.6446 65.6042 57.7972 65.404C59.0767 63.7257 60.3568 62.0474 61.6363 60.3691C61.8206 60.1272 62.0049 59.886 62.1892 59.644C62.0215 59.5987 61.8537 59.5533 61.6859 59.508C61.6859 61.38 61.6859 63.252 61.6859 65.124C61.6859 65.4717 62.2259 65.4717 62.2259 65.124C62.2259 63.252 62.2259 61.38 62.2259 59.508C62.2259 59.2164 61.8753 59.1717 61.7227 59.3719C60.4432 61.0502 59.1631 62.7285 57.8836 64.4068C57.6993 64.6487 57.515 64.8899 57.3307 65.1319C57.4984 65.1772 57.6662 65.2226 57.8339 65.268C57.8339 63.3477 57.8339 61.4282 57.8339 59.508C57.8339 59.1602 57.2939 59.1602 57.2939 59.508Z" fill="white"/>
<path d="M83.4297 59.76C83.4297 61.6802 83.4297 63.5997 83.4297 65.52C83.4297 65.8116 83.7803 65.8562 83.933 65.656C85.2124 63.9777 86.4926 62.2994 87.772 60.6211C87.9563 60.3792 88.1406 60.138 88.325 59.896C88.1572 59.8507 87.9894 59.8053 87.8217 59.76C87.8217 61.632 87.8217 63.504 87.8217 65.376C87.8217 65.7237 88.3617 65.7237 88.3617 65.376C88.3617 63.504 88.3617 61.632 88.3617 59.76C88.3617 59.4684 88.011 59.4237 87.8584 59.6239C86.579 61.3022 85.2988 62.9805 84.0194 64.6588C83.835 64.9008 83.6507 65.142 83.4664 65.3839C83.6342 65.4292 83.8019 65.4746 83.9697 65.52C83.9697 63.5997 83.9697 61.6802 83.9697 59.76C83.9697 59.4122 83.4297 59.4122 83.4297 59.76Z" fill="white"/>
<path d="M57.9511 57.492C58.219 58.2818 58.8526 59.1293 59.7547 59.1617C60.6792 59.1948 61.6577 58.4244 61.7837 57.492C61.8298 57.1521 61.3092 57.0053 61.2631 57.3487C61.1688 58.0485 60.4661 58.6584 59.7547 58.6224C59.1146 58.59 58.6596 57.9031 58.4717 57.3487C58.3608 57.0211 57.8395 57.1615 57.9511 57.492Z" fill="white"/>
<path d="M63.8277 60.138C65.46 60.138 67.0915 60.138 68.7237 60.138C69.0715 60.138 69.0715 59.598 68.7237 59.598C67.0915 59.598 65.46 59.598 63.8277 59.598C63.48 59.598 63.48 60.138 63.8277 60.138Z" fill="white"/>
<path d="M66.0059 59.94C66.0059 61.7162 66.0059 63.4917 66.0059 65.268C66.0059 65.6157 66.5459 65.6157 66.5459 65.268C66.5459 63.4917 66.5459 61.7162 66.5459 59.94C66.5459 59.5922 66.0059 59.5922 66.0059 59.94Z" fill="white"/>
<path d="M77.0938 59.94C77.0938 62.0791 77.0938 64.2182 77.0938 66.3573C77.0938 66.6662 77.0938 66.9751 77.0938 67.284C77.0938 67.6317 77.6338 67.6317 77.6338 67.284C77.6338 65.1448 77.6338 63.0057 77.6338 60.8666C77.6338 60.5577 77.6338 60.2488 77.6338 59.94C77.6338 59.5922 77.0938 59.5922 77.0938 59.94Z" fill="white"/>
<path d="M77.5078 65.538C78.3517 65.538 79.1955 65.538 80.0394 65.538C80.2892 65.538 80.655 65.6064 80.8702 65.4559C81.1093 65.2888 81.2994 64.972 81.439 64.7265C82.1194 63.5284 82.2995 61.8127 81.5795 60.5959C81.2951 60.1149 80.7622 59.4532 80.1474 59.4532C79.2193 59.4532 78.2919 59.4532 77.3638 59.4532C77.0161 59.4532 77.0161 59.9932 77.3638 59.9932C77.8318 59.9932 78.3006 59.9932 78.7686 59.9932C79.1026 59.9932 79.4374 59.9932 79.7715 59.9932C79.8111 59.9932 80.2935 60.0249 80.3065 59.9932C80.2626 60.0991 80.1236 59.8881 80.233 59.9846C80.2914 60.0364 80.3756 60.071 80.439 60.1171C80.6614 60.2798 80.8587 60.4864 81.015 60.7132C81.5938 61.5564 81.5787 62.6529 81.3159 63.6069C81.1726 64.126 80.9206 64.7272 80.485 65.0757C80.5484 65.0491 80.6125 65.0232 80.6758 64.9965C79.6196 64.9965 78.5641 64.9965 77.5078 64.9965C77.1601 64.998 77.1601 65.538 77.5078 65.538Z" fill="white"/>
<path d="M90.126 59.94C90.126 61.74 90.126 63.54 90.126 65.34C90.126 65.6877 90.666 65.6877 90.666 65.34C90.666 63.54 90.666 61.74 90.666 59.94C90.666 59.5922 90.126 59.5922 90.126 59.94Z" fill="white"/>
<path d="M90.4679 62.658C91.7156 62.658 92.9641 62.658 94.2119 62.658C94.5596 62.658 94.5596 62.118 94.2119 62.118C92.9641 62.118 91.7156 62.118 90.4679 62.118C90.1201 62.118 90.1201 62.658 90.4679 62.658Z" fill="white"/>
<path d="M93.9419 59.868C93.9419 61.6918 93.9419 63.5162 93.9419 65.34C93.9419 65.6878 94.4819 65.6878 94.4819 65.34C94.4819 63.5162 94.4819 61.6918 94.4819 59.868C94.4819 59.5202 93.9419 59.5202 93.9419 59.868Z" fill="white"/>
<path d="M97.146 65.34C97.146 63.5162 97.146 61.6917 97.146 59.868C97.056 59.958 96.966 60.048 96.876 60.138C97.884 60.138 98.892 60.138 99.9 60.138C100.248 60.138 100.248 59.598 99.9 59.598C98.892 59.598 97.884 59.598 96.876 59.598C96.7298 59.598 96.606 59.7218 96.606 59.868C96.606 61.6917 96.606 63.5162 96.606 65.34C96.606 65.6877 97.146 65.6877 97.146 65.34Z" fill="white"/>
</svg>
