<svg width="103" height="51" viewBox="0 0 103 51" fill="none" xmlns="http://www.w3.org/2000/svg">
<path d="M6.12892 35.955C6.12892 35.955 9.52792 35.394 12.1544 32.079C14.7809 28.764 16.9954 25.143 17.6649 23.46C18.3344 21.777 18.3344 21.777 18.3344 21.777C18.3344 21.777 18.0254 27.03 19.4674 29.529C20.9094 32.028 21.8879 32.334 21.8879 32.334C21.8879 32.334 19.7249 29.172 19.7249 24.123C19.7249 19.074 19.9309 16.728 19.4159 16.32C19.4159 16.32 18.4889 16.371 18.3859 17.391C18.2829 18.411 17.1499 21.063 16.5319 22.644C15.9139 24.225 12.1544 31.059 10.0944 32.793C8.03442 34.527 7.00442 35.241 6.33492 35.292C5.66542 35.343 6.12892 35.955 6.12892 35.955Z" fill="#121212"/>
<path d="M22.3518 26.01C22.3518 26.01 21.9398 29.223 23.2273 31.008C24.5148 32.793 25.6478 31.824 26.4203 31.212C27.1928 30.6 27.3473 30.09 27.3473 30.09C27.3473 30.09 29.1498 31.62 29.0983 30.855C29.0468 30.09 28.5833 28.662 27.8623 27.744C27.1413 26.826 26.3688 26.673 26.0598 28.05C25.7508 29.427 24.8753 30.906 23.9483 29.733C23.0213 28.56 24.3603 26.163 23.6393 25.5C22.9183 24.837 22.3518 26.01 22.3518 26.01Z" fill="#121212"/>
<path d="M36.5139 25.857C36.5139 25.857 36.1019 29.07 37.3894 30.855C38.6769 32.64 39.8099 31.671 40.5824 31.059C41.3549 30.447 41.5094 29.937 41.5094 29.937C41.5094 29.937 43.3119 31.467 43.2604 30.702C43.2089 29.937 42.7454 28.509 42.0244 27.591C41.3034 26.673 40.5309 26.52 40.2219 27.897C39.9129 29.274 39.0374 30.753 38.1104 29.58C37.1834 28.407 38.5224 26.01 37.8014 25.347C37.0804 24.684 36.5139 25.857 36.5139 25.857Z" fill="#121212"/>
<path d="M32.394 29.784L32.3425 32.028C32.3425 32.028 31.467 32.334 31.467 32.028C31.467 31.722 31.467 29.682 31.467 29.682C31.467 29.682 29.922 29.988 29.8705 29.58C29.819 29.172 31.2095 29.07 31.364 28.917C31.5185 28.764 31.57 27.54 31.3125 27.54C31.055 27.54 30.1795 27.795 30.128 27.336C30.0765 26.877 30.746 26.418 31.467 26.214C32.188 26.01 32.4455 26.061 32.394 26.826C32.3425 27.591 32.394 28.917 32.394 28.917L34.1965 28.815C34.1965 28.815 33.8875 27.744 34.5055 26.724C35.1235 25.704 35.6385 25.551 35.5355 26.724C35.4325 27.897 35.072 30.447 35.175 31.11C35.278 31.773 35.9475 32.538 35.5355 32.742C35.1235 32.946 34.454 32.691 34.248 31.569C34.042 30.447 34.1965 29.784 34.1965 29.784H32.394Z" fill="#121212"/>
<path d="M49.0799 28.56C49.0799 28.56 48.6679 28.713 48.7194 29.682C48.7709 30.651 48.9769 31.62 48.7194 31.824C48.4619 32.028 47.4834 32.385 47.3804 31.365C47.2774 30.345 47.3804 29.223 47.3804 29.223L47.0714 29.274C47.0714 29.274 45.8354 31.212 45.2689 31.824C44.7024 32.436 43.9299 32.64 43.7754 31.977C43.6209 31.314 43.9814 30.957 44.7539 30.345C45.5264 29.733 45.5779 29.376 45.5264 29.376C45.4749 29.376 44.5994 29.529 44.2904 28.56C43.9814 27.591 44.4964 26.877 44.9084 26.469C45.3204 26.061 46.2474 25.857 47.0714 25.857C47.8954 25.857 48.5649 26.622 48.2044 26.826C47.8439 27.03 46.0929 26.877 46.0929 27.081C46.0929 27.285 45.7324 28.509 46.4019 28.458C47.0714 28.407 47.6379 27.897 48.1529 27.438C48.6679 26.979 49.1314 26.877 49.1829 27.54C49.2344 28.203 49.2859 28.458 49.2344 28.509C49.1829 28.56 49.0799 28.56 49.0799 28.56Z" fill="#121212"/>
<path d="M55.929 36.924C55.929 36.924 57.577 29.223 57.6285 27.693C57.68 26.163 57.6285 26.163 57.6285 26.163C57.6285 26.163 56.4955 25.245 57.062 24.735C57.6285 24.225 57.9375 24.225 57.9375 24.225C57.9375 24.225 57.68 17.544 57.9375 17.289C58.195 17.034 59.74 16.932 59.74 17.442C59.74 17.952 59.74 18.411 61.182 18.564C62.624 18.717 64.4265 19.431 63.345 21.522C62.2635 23.613 61.6455 23.001 61.697 22.542C61.7485 22.083 63.345 20.859 62.212 20.247C61.079 19.635 60.152 20.298 59.946 21.624C59.74 22.95 59.8945 23.664 60.667 23.409C61.4395 23.154 61.903 21.93 62.212 22.032C62.521 22.134 62.3665 23.511 63.036 23.664C63.7055 23.817 69.937 24.378 70.0915 26.673C70.246 28.968 66.3835 31.212 62.418 32.028C58.4525 32.844 57.7315 32.844 57.7315 32.844L57.68 31.977C57.68 31.977 61.388 31.977 64.684 30.6C67.98 29.223 69.525 28.305 68.3405 26.469C67.156 24.633 63.2935 24.786 62.0575 24.99C60.8215 25.194 59.3795 25.5 58.9675 27.387C58.5555 29.274 58.401 31.008 57.6285 33.966C56.856 36.924 56.4955 37.842 56.1865 37.689C55.8775 37.536 55.929 36.924 55.929 36.924Z" fill="#121212"/>
<path d="M57.2169 32.079C57.2169 32.079 53.8694 32.589 52.3244 33.15C50.7794 33.711 47.0199 34.425 46.7109 36.312C46.4019 38.199 49.8524 38.556 50.9854 38.403C52.1184 38.25 52.1184 37.893 50.7794 37.893C49.4404 37.893 48.3074 37.434 48.4104 35.955C48.5134 34.476 52.3244 33.711 54.3844 33.456C56.4444 33.201 57.4744 32.793 57.4744 32.793L57.2169 32.079Z" fill="#121212"/>
<path d="M72.049 27.591C72.049 27.591 71.946 26.112 72.049 25.602C72.152 25.092 71.9975 24.684 71.431 24.939C70.8645 25.194 70.71 25.806 70.6585 27.489C70.607 29.172 70.607 30.549 71.122 31.365C71.637 32.181 72.564 32.028 72.3065 31.212C72.049 30.396 71.4825 29.886 71.5855 29.478C71.6885 29.07 73.8515 30.753 74.315 31.212C74.7785 31.671 75.757 32.181 76.2205 31.671C76.684 31.161 76.375 30.702 75.2935 30.294C74.212 29.886 72.77 28.662 72.77 28.662C72.77 28.662 74.5725 27.642 75.345 26.928C76.1175 26.214 76.375 25.398 75.2935 25.704C74.212 26.01 73.1305 27.183 72.667 27.54C72.2035 27.897 72.049 27.591 72.049 27.591Z" fill="#121212"/>
<path d="M83.0704 26.673C83.0704 26.673 82.8644 35.394 82.8129 37.434C82.7614 39.474 82.7099 42.687 81.6284 44.268C80.5469 45.849 78.6414 45.084 77.8174 43.809C76.9934 42.534 77.4569 40.698 77.6114 40.596C77.7659 40.494 78.1779 40.953 78.3324 42.228C78.4869 43.503 80.5469 44.625 81.3709 42.891C82.1949 41.157 82.4524 35.139 82.1434 33.609C81.8344 32.079 81.1649 30.702 80.5984 30.957C80.0319 31.212 78.8989 31.773 78.3324 30.447C77.7659 29.121 78.1264 28.509 77.3539 28.56C76.5814 28.611 76.6844 27.795 77.3539 27.387C78.0234 26.979 78.8989 26.877 79.0019 27.693C79.1049 28.509 79.8774 30.345 80.5984 29.529C81.3194 28.713 81.2164 26.877 81.5254 26.061C81.8344 25.245 82.5554 25.602 82.8129 25.908C83.0704 26.214 83.0704 26.673 83.0704 26.673Z" fill="#121212"/>
<path d="M88.7347 27.489C88.7347 27.489 86.2112 27.438 85.6962 28.815C85.1812 30.192 85.6447 31.161 86.7777 30.906C87.9107 30.651 88.0652 29.631 88.5802 29.682C89.0952 29.733 89.2497 30.447 89.1467 30.957C89.0437 31.467 87.8592 32.232 86.3657 32.028C84.8722 31.824 83.5332 30.6 84.5117 28.764C85.4902 26.928 86.5202 26.877 87.3957 26.775C88.2712 26.673 89.0952 26.724 89.0952 27.081C89.0952 27.438 88.7347 27.489 88.7347 27.489Z" fill="#121212"/>
<path d="M93.01 27.642C93.01 27.642 91.5165 28.815 91.568 29.886C91.6195 30.957 92.598 30.804 93.319 30.192C94.04 29.58 93.8855 28.152 93.319 27.693C92.7525 27.234 92.598 25.959 93.2675 26.061C93.937 26.163 94.8125 27.948 95.173 28.968C95.5335 29.988 96.512 30.906 96.8725 31.212C97.233 31.518 96.8725 32.283 96.2545 32.181C95.6365 32.079 94.9155 31.263 94.658 30.855C94.4005 30.447 93.834 30.753 93.4735 31.161C93.113 31.569 92.804 31.977 91.877 32.079C90.95 32.181 90.2805 31.518 90.3835 30.396C90.4865 29.274 90.6925 28.662 91.6195 27.948C92.5465 27.234 93.01 27.642 93.01 27.642Z" fill="#121212"/>
<path d="M76.0143 45.39C76.6612 45.2416 77.0557 44.6316 76.9413 44.064C76.844 43.5805 76.3944 43.2103 75.9113 43.197C75.2367 43.1787 74.6383 43.8605 74.7783 44.523C74.886 45.0325 75.4082 45.4242 76.0143 45.39Z" fill="#121212"/>
<path d="M26.9858 45.543C27.5616 45.4002 27.9494 44.8769 27.9128 44.319C27.8778 43.785 27.4611 43.3138 26.9343 43.248C26.2802 43.1664 25.6303 43.7335 25.6468 44.421C25.6628 45.0758 26.2766 45.619 26.9858 45.543Z" fill="#121212"/>
<path d="M25.621 18.5385C25.621 18.5385 21.81 16.1415 22.2735 12.5205C22.737 8.89947 30.153 8.74647 33.5005 10.3785C36.848 12.0105 39.114 15.3765 45.5 16.6515C51.886 17.9265 56.83 15.0705 58.375 12.4695C59.92 9.86847 57.86 8.38947 55.2335 9.05247C52.607 9.71547 51.9375 11.3475 51.9375 12.2145C51.9375 13.0815 55.5425 14.1015 60.435 9.40947C65.3275 4.71747 71.3015 2.77947 77.327 3.18747C83.3525 3.59547 85.7215 5.38047 86.0305 7.82847C86.3395 10.2765 83.0435 12.4695 77.327 11.9085C71.6105 11.3475 66.5635 11.5005 66.306 14.1015C66.0485 16.7025 71.9195 18.8445 77.8935 19.1505C83.8675 19.4565 88.554 18.6405 89.172 18.0285C89.79 17.4165 83.8675 16.5495 80.314 17.4675C76.7605 18.3855 75.8335 18.7935 75.6275 19.9665C75.4215 21.1395 79.6445 23.2815 83.095 21.8025C86.5455 20.3235 86.906 20.4765 82.3225 20.4255C77.739 20.3745 76.709 20.5785 73.31 19.8645C69.911 19.1505 67.954 17.6205 70.117 15.4275C72.28 13.2345 81.2925 12.8775 87.009 13.7445C92.7255 14.6115 94.322 15.3765 92.674 17.0595C91.026 18.7425 89.687 19.3545 85.67 19.6605C81.653 19.9665 80.623 19.9155 80.623 19.9155" stroke="#121212" stroke-width="0.66" stroke-miterlimit="10"/>
<path d="M35.7148 6.65546C35.7148 6.65546 38.4443 11.4495 42.3068 13.4895C46.1693 15.5295 50.1863 14.9685 50.1863 14.9685" stroke="#121212" stroke-width="0.66" stroke-miterlimit="10"/>
<path d="M72.6406 7.72645C72.6406 7.72645 83.6616 4.15645 87.0606 7.06345C90.4596 9.97045 83.7646 12.3164 83.7646 12.3164" stroke="#121212" stroke-width="0.66" stroke-miterlimit="10"/>
<path d="M31.8652 42.3555C31.8652 43.6984 31.8652 45.0417 31.8652 46.3845C31.8652 46.6309 32.2515 46.6309 32.2515 46.3845C32.2515 45.0417 32.2515 43.6984 32.2515 42.3555C32.2515 42.1092 31.8652 42.1092 31.8652 42.3555Z" fill="#121212"/>
<path d="M32.0577 44.5613C32.4218 44.5536 32.7859 44.5506 33.1495 44.5378C33.4039 44.5286 33.5063 44.3343 33.665 44.1548C34.1532 43.6004 34.6414 43.0456 35.1296 42.4912C35.2924 42.3066 35.0204 42.0347 34.8567 42.2209C34.2732 42.8839 33.6892 43.5469 33.1057 44.2099C33.151 44.191 33.1968 44.1727 33.2422 44.1538C32.8471 44.1625 32.4527 44.1706 32.0577 44.1793C31.8094 44.1839 31.8084 44.5669 32.0577 44.5613Z" fill="#121212"/>
<path d="M33.106 44.5816C33.6725 45.2105 34.239 45.8398 34.8055 46.4686C34.9714 46.6528 35.2438 46.3814 35.0785 46.1983C34.512 45.5695 33.9455 44.9402 33.379 44.3113C33.2132 44.1272 32.9407 44.3986 33.106 44.5816Z" fill="#121212"/>
<path d="M39.3892 45.5354C39.1832 45.7226 38.9772 45.9092 38.7712 46.0964C38.8165 46.0775 38.8623 46.0592 38.9076 46.0403C38.3926 46.0403 37.8776 46.0403 37.3626 46.0403C37.408 46.0592 37.4538 46.0775 37.4991 46.0964C37.2586 45.9092 37.0186 45.7226 36.7781 45.5354C36.7972 45.5803 36.8157 45.6257 36.8348 45.6705C36.8348 44.7525 36.8348 43.8345 36.8348 42.9165C36.8028 42.9716 36.7709 43.0267 36.739 43.0818C37.0686 42.8487 37.3987 42.6151 37.7283 42.3821C37.7396 42.3739 37.7983 42.3438 37.8019 42.33C37.8133 42.2857 37.7267 42.3336 37.7376 42.3433C37.7695 42.3724 37.9688 42.3433 38.0115 42.3433C38.2072 42.3433 38.4024 42.3433 38.5981 42.3433C38.5528 42.3244 38.507 42.3061 38.4617 42.2872C38.7707 42.5254 39.0797 42.763 39.3887 43.0012C39.3696 42.9563 39.3511 42.9109 39.332 42.866C39.332 43.3929 39.332 43.9202 39.332 44.447C39.3964 44.3833 39.4607 44.3195 39.5251 44.2558C38.5981 44.2558 37.6711 44.2558 36.7441 44.2558C36.4954 44.2558 36.4954 44.6383 36.7441 44.6383C37.6711 44.6383 38.5981 44.6383 39.5251 44.6383C39.6297 44.6383 39.7182 44.5506 39.7182 44.447C39.7182 44.0186 39.7182 43.5902 39.7182 43.1618C39.7182 43.0262 39.7528 42.8405 39.6595 42.7289C39.5442 42.5912 39.3402 42.483 39.1981 42.3734C39.0472 42.2571 38.8984 42.1179 38.7356 42.0174C38.5698 41.9149 38.3252 41.9603 38.1351 41.9603C37.9781 41.9603 37.7623 41.9215 37.617 41.9924C37.4368 42.0796 37.2684 42.2393 37.1051 42.3545C36.9254 42.4815 36.7323 42.5998 36.5618 42.7391C36.4526 42.8278 36.448 42.9063 36.448 43.0328C36.448 43.5041 36.448 43.9758 36.448 44.447C36.448 44.8413 36.4068 45.2595 36.448 45.6517C36.4655 45.8179 36.6035 45.8837 36.7282 45.9801C36.8909 46.1066 37.0506 46.2581 37.2257 46.3672C37.3858 46.4672 37.6253 46.4233 37.8091 46.4233C38.1099 46.4233 38.4112 46.4233 38.7119 46.4233C38.887 46.4233 38.9859 46.4192 39.1203 46.2973C39.3006 46.1336 39.4808 45.9699 39.6616 45.8062C39.846 45.6389 39.572 45.3691 39.3892 45.5354Z" fill="#121212"/>
<path d="M53.397 45.5863C53.191 45.7735 52.985 45.9602 52.779 46.1473C52.8243 46.1285 52.8701 46.1101 52.9155 46.0912C52.4005 46.0912 51.8855 46.0912 51.3705 46.0912C51.4158 46.1101 51.4616 46.1285 51.5069 46.1473C51.2664 45.9602 51.0264 45.7735 50.7859 45.5863C50.805 45.6312 50.8235 45.6766 50.8426 45.7215C50.8426 44.8035 50.8426 43.8855 50.8426 42.9675C50.8106 43.0226 50.7787 43.0777 50.7468 43.1327C51.0764 42.8997 51.4065 42.6661 51.7361 42.433C51.7474 42.4249 51.8061 42.3948 51.8097 42.381C51.8211 42.3366 51.7346 42.3846 51.7454 42.3943C51.7773 42.4233 51.9766 42.3943 52.0194 42.3943C52.2151 42.3943 52.4102 42.3943 52.6059 42.3943C52.5606 42.3754 52.5148 42.357 52.4695 42.3382C52.7785 42.5763 53.0875 42.814 53.3965 43.0522C53.3774 43.0073 53.3589 42.9619 53.3398 42.917C53.3398 43.4438 53.3398 43.9712 53.3398 44.498C53.4042 44.4343 53.4686 44.3705 53.5329 44.3068C52.6059 44.3068 51.6789 44.3068 50.7519 44.3068C50.5032 44.3068 50.5032 44.6893 50.7519 44.6893C51.6789 44.6893 52.6059 44.6893 53.5329 44.6893C53.6375 44.6893 53.7261 44.6015 53.7261 44.498C53.7261 44.0696 53.7261 43.6412 53.7261 43.2128C53.7261 43.0771 53.7606 42.8915 53.6674 42.7798C53.552 42.6421 53.3481 42.534 53.2059 42.4243C53.055 42.3081 52.9062 42.1688 52.7434 42.0684C52.5776 41.9659 52.333 42.0112 52.143 42.0112C51.9859 42.0112 51.7701 41.9725 51.6249 42.0434C51.4446 42.1306 51.2762 42.2902 51.113 42.4055C50.9332 42.5325 50.7401 42.6508 50.5696 42.79C50.4604 42.8788 50.4558 42.9573 50.4558 43.0838C50.4558 43.555 50.4558 44.0268 50.4558 44.498C50.4558 44.8922 50.4146 45.3104 50.4558 45.7026C50.4733 45.8689 50.6113 45.9347 50.736 46.0311C50.8987 46.1575 51.0584 46.309 51.2335 46.4182C51.3936 46.5181 51.6331 46.4743 51.817 46.4743C52.1177 46.4743 52.419 46.4743 52.7198 46.4743C52.8954 46.4743 52.9937 46.4702 53.1281 46.3483C53.3084 46.1846 53.4886 46.0209 53.6694 45.8572C53.8538 45.6899 53.5798 45.4201 53.397 45.5863Z" fill="#121212"/>
<path d="M40.9805 42.1515C40.9805 43.5117 40.9805 44.8714 40.9805 46.2315C40.9805 46.4381 41.2313 46.4697 41.3405 46.3279C42.2556 45.1391 43.1713 43.9503 44.0864 42.7615C44.2183 42.5901 44.3501 42.4193 44.482 42.2479C44.362 42.2158 44.242 42.1837 44.122 42.1515C44.122 43.4775 44.122 44.8035 44.122 46.1295C44.122 46.3759 44.5082 46.3759 44.5082 46.1295C44.5082 44.8035 44.5082 43.4775 44.5082 42.1515C44.5082 41.945 44.2574 41.9134 44.1482 42.0552C43.2331 43.244 42.3174 44.4328 41.4023 45.6216C41.2704 45.7929 41.1386 45.9638 41.0067 46.1352C41.1267 46.1673 41.2467 46.1994 41.3667 46.2315C41.3667 44.8714 41.3667 43.5117 41.3667 42.1515C41.3667 41.9052 40.9805 41.9052 40.9805 42.1515Z" fill="#121212"/>
<path d="M59.6758 42.33C59.6758 43.6902 59.6758 45.0498 59.6758 46.41C59.6758 46.6166 59.9266 46.6482 60.0358 46.5064C60.9509 45.3176 61.8666 44.1288 62.7817 42.94C62.9136 42.7686 63.0454 42.5978 63.1773 42.4264C63.0573 42.3943 62.9373 42.3621 62.8173 42.33C62.8173 43.656 62.8173 44.982 62.8173 46.308C62.8173 46.5543 63.2035 46.5543 63.2035 46.308C63.2035 44.982 63.2035 43.656 63.2035 42.33C63.2035 42.1235 62.9527 42.0918 62.8435 42.2336C61.9284 43.4224 61.0127 44.6112 60.0976 45.8C59.9657 45.9714 59.8339 46.1423 59.702 46.3136C59.822 46.3458 59.942 46.3779 60.062 46.41C60.062 45.0498 60.062 43.6902 60.062 42.33C60.062 42.0837 59.6758 42.0837 59.6758 42.33Z" fill="#121212"/>
<path d="M41.4506 40.7235C41.6422 41.283 42.0954 41.8833 42.7407 41.9062C43.4019 41.9297 44.1018 41.384 44.1919 40.7235C44.2249 40.4828 43.8525 40.3788 43.8196 40.622C43.7521 41.1178 43.2495 41.5497 42.7407 41.5242C42.2828 41.5013 41.9573 41.0147 41.8229 40.622C41.7436 40.39 41.3708 40.4894 41.4506 40.7235Z" fill="#121212"/>
<path d="M45.6553 42.5978C46.8228 42.5978 47.9898 42.5978 49.1573 42.5978C49.4061 42.5978 49.4061 42.2153 49.1573 42.2153C47.9898 42.2153 46.8228 42.2153 45.6553 42.2153C45.4066 42.2153 45.4066 42.5978 45.6553 42.5978Z" fill="#121212"/>
<path d="M47.2129 42.4575C47.2129 43.7157 47.2129 44.9733 47.2129 46.2315C47.2129 46.4778 47.5991 46.4778 47.5991 46.2315C47.5991 44.9733 47.5991 43.7157 47.5991 42.4575C47.5991 42.2112 47.2129 42.2112 47.2129 42.4575Z" fill="#121212"/>
<path d="M55.1426 42.4575C55.1426 43.9727 55.1426 45.4879 55.1426 47.0031C55.1426 47.2219 55.1426 47.4407 55.1426 47.6595C55.1426 47.9058 55.5288 47.9058 55.5288 47.6595C55.5288 46.1443 55.5288 44.6291 55.5288 43.1139C55.5288 42.8951 55.5288 42.6763 55.5288 42.4575C55.5288 42.2112 55.1426 42.2112 55.1426 42.4575Z" fill="#121212"/>
<path d="M55.4399 46.4227C56.0435 46.4227 56.6471 46.4227 57.2507 46.4227C57.4294 46.4227 57.691 46.4712 57.845 46.3646C58.016 46.2463 58.1519 46.0219 58.2518 45.848C58.7385 44.9993 58.8673 43.784 58.3523 42.9221C58.1489 42.5814 57.7678 42.1127 57.3279 42.1127C56.6641 42.1127 56.0008 42.1127 55.3369 42.1127C55.0882 42.1127 55.0882 42.4952 55.3369 42.4952C55.6717 42.4952 56.007 42.4952 56.3417 42.4952C56.5807 42.4952 56.8201 42.4952 57.0591 42.4952C57.0874 42.4952 57.4325 42.5177 57.4418 42.4952C57.4103 42.5702 57.3109 42.4208 57.3892 42.4891C57.4309 42.5258 57.4912 42.5503 57.5365 42.583C57.6956 42.6982 57.8368 42.8446 57.9485 43.0052C58.3626 43.6024 58.3518 44.3792 58.1638 45.0549C58.0613 45.4226 57.881 45.8485 57.5695 46.0953C57.6148 46.0765 57.6606 46.0581 57.7059 46.0392C56.9504 46.0392 56.1955 46.0392 55.4399 46.0392C55.1912 46.0402 55.1912 46.4227 55.4399 46.4227Z" fill="#121212"/>
<path d="M64.4648 42.4575C64.4648 43.7325 64.4648 45.0075 64.4648 46.2825C64.4648 46.5288 64.8511 46.5288 64.8511 46.2825C64.8511 45.0075 64.8511 43.7325 64.8511 42.4575C64.8511 42.2112 64.4648 42.2112 64.4648 42.4575Z" fill="#121212"/>
<path d="M64.71 44.3827C65.6025 44.3827 66.4955 44.3827 67.388 44.3827C67.6367 44.3827 67.6367 44.0002 67.388 44.0002C66.4955 44.0002 65.6025 44.0002 64.71 44.0002C64.4613 44.0002 64.4613 44.3827 64.71 44.3827Z" fill="#121212"/>
<path d="M67.1934 42.4065C67.1934 43.6984 67.1934 44.9907 67.1934 46.2825C67.1934 46.5289 67.5796 46.5289 67.5796 46.2825C67.5796 44.9907 67.5796 43.6984 67.5796 42.4065C67.5796 42.1602 67.1934 42.1602 67.1934 42.4065Z" fill="#121212"/>
<path d="M69.4859 46.2825C69.4859 44.9907 69.4859 43.6984 69.4859 42.4065C69.4215 42.4703 69.3571 42.534 69.2927 42.5978C70.0137 42.5978 70.7347 42.5978 71.4557 42.5978C71.7045 42.5978 71.7045 42.2153 71.4557 42.2153C70.7347 42.2153 70.0137 42.2153 69.2927 42.2153C69.1882 42.2153 69.0996 42.303 69.0996 42.4065C69.0996 43.6984 69.0996 44.9907 69.0996 46.2825C69.0996 46.5289 69.4859 46.5289 69.4859 46.2825Z" fill="#121212"/>
</svg>
